<svg width="40" height="25" viewBox="0 0 40 25" fill="none" xmlns="http://www.w3.org/2000/svg">
<path fill-rule="evenodd" clip-rule="evenodd" d="M39.5 12.5C35.5 17.5 26.4036 25 19.5 25C16.9209 25 14.1752 23.9532 11.5129 22.381L17.481 18.6803C18.1165 18.8878 18.7952 19 19.5 19C22.7708 19 25.4773 16.5842 25.9326 13.4396L34.9315 7.85952C34.949 7.84867 34.9663 7.83771 34.9836 7.82663C36.7926 9.43291 38.3551 11.0689 39.5 12.5ZM22.0162 6.50496L28.041 2.7691C25.1464 1.1138 22.1604 0 19.5 0C12.5964 0 4.5 7.5 0 12.5C1.30535 13.9504 2.91331 15.6111 4.707 17.2382L13.0129 12.0878C13.2255 8.69001 16.0486 6 19.5 6C20.3921 6 21.2423 6.17973 22.0162 6.50496Z" fill="#AEB5B1"/>
<path d="M34.5 3.5L4 22.5" stroke="#AEB5B1" stroke-width="4" stroke-linecap="round"/>
</svg>
