<svg width="24" height="24" viewBox="0 0 24 24" fill="none" xmlns="http://www.w3.org/2000/svg">
<path d="M18 8.8479C16.7817 6.56524 14.2816 5 11.3952 5C7.31094 5 4 8.13401 4 12C4 15.866 7.31094 19 11.3952 19C14.2816 19 16.7817 17.4348 18 15.1521" stroke="#25D06A" stroke-width="2" stroke-linecap="round"/>
<path d="M20.4521 11.7177C20.4498 11.8783 20.3705 12.028 20.2389 12.1201C20.1073 12.2122 19.9395 12.2356 19.7878 12.1828L16.2936 10.9672C16.1163 10.9055 15.9885 10.7497 15.9626 10.5637C15.9368 10.3778 16.0173 10.193 16.1711 10.0853L19.7181 7.60168C19.8719 7.494 20.073 7.48154 20.2389 7.56941C20.4048 7.65728 20.5075 7.83068 20.5049 8.01839L20.4521 11.7177Z" fill="#25D06A" stroke="#25D06A" stroke-linejoin="round"/>
</svg>
