<svg width="27" height="27" viewBox="0 0 27 27" fill="none" xmlns="http://www.w3.org/2000/svg">
<circle cx="13.311" cy="13.311" r="13.311" fill="#3493EB"/>
<path d="M14.1889 9.946V17.506L15.2149 17.56V19H10.9309V17.632L11.5249 17.578C11.8729 17.542 12.0469 17.35 12.0469 17.002V11.998C12.0469 11.794 12.0109 11.656 11.9389 11.584C11.8789 11.512 11.7649 11.476 11.5969 11.476L10.9669 11.44V9.946H14.1889ZM11.9209 8.398C11.6689 8.146 11.5429 7.828 11.5429 7.444C11.5429 7.06 11.6689 6.742 11.9209 6.49C12.1729 6.226 12.5029 6.094 12.9109 6.094C13.3189 6.094 13.6489 6.226 13.9009 6.49C14.1649 6.742 14.2969 7.06 14.2969 7.444C14.2969 7.828 14.1649 8.146 13.9009 8.398C13.6489 8.638 13.3189 8.758 12.9109 8.758C12.5029 8.758 12.1729 8.638 11.9209 8.398Z" fill="white"/>
</svg>
