<svg width="135" height="35" viewBox="0 0 135 35" fill="none" xmlns="http://www.w3.org/2000/svg">
<path d="M27.3996 26.156C26.8969 26.156 26.4896 26.0087 26.1776 25.714C25.8829 25.402 25.7356 24.986 25.7356 24.466V9.256C25.7356 8.75333 25.8743 8.36333 26.1516 8.086C26.4463 7.80867 26.8449 7.67 27.3476 7.67H33.7436C35.7023 7.67 37.2276 8.164 38.3196 9.152C39.4116 10.1227 39.9576 11.492 39.9576 13.26C39.9576 15.028 39.4116 16.406 38.3196 17.394C37.2276 18.382 35.7023 18.876 33.7436 18.876H29.0896V24.466C29.0896 24.986 28.9336 25.402 28.6216 25.714C28.3269 26.0087 27.9196 26.156 27.3996 26.156ZM33.3276 16.302C35.6329 16.302 36.7856 15.2967 36.7856 13.286C36.7856 11.2753 35.6329 10.27 33.3276 10.27H29.0896V16.302H33.3276ZM47.4346 26.208C46.1346 26.208 44.9906 25.9393 44.0026 25.402C43.032 24.8647 42.278 24.0933 41.7406 23.088C41.2033 22.0827 40.9346 20.9127 40.9346 19.578C40.9346 18.2433 41.2033 17.082 41.7406 16.094C42.278 15.0887 43.032 14.3173 44.0026 13.78C44.9906 13.2427 46.1346 12.974 47.4346 12.974C48.7346 12.974 49.87 13.2427 50.8406 13.78C51.8286 14.3173 52.5826 15.0887 53.1026 16.094C53.64 17.082 53.9086 18.2433 53.9086 19.578C53.9086 20.9127 53.64 22.0827 53.1026 23.088C52.5826 24.0933 51.8286 24.8647 50.8406 25.402C49.87 25.9393 48.7346 26.208 47.4346 26.208ZM47.4086 23.686C48.466 23.686 49.272 23.3393 49.8266 22.646C50.3813 21.9527 50.6586 20.93 50.6586 19.578C50.6586 18.2433 50.3813 17.2293 49.8266 16.536C49.272 15.8253 48.4746 15.47 47.4346 15.47C46.3946 15.47 45.5886 15.8253 45.0166 16.536C44.462 17.2293 44.1846 18.2433 44.1846 19.578C44.1846 20.93 44.462 21.9527 45.0166 22.646C45.5713 23.3393 46.3686 23.686 47.4086 23.686ZM66.6797 7.54C67.1651 7.54 67.5637 7.67867 67.8757 7.956C68.1877 8.23333 68.3437 8.59733 68.3437 9.048V24.596C68.3437 25.064 68.1964 25.4367 67.9017 25.714C67.6071 25.9913 67.2171 26.13 66.7317 26.13C66.2464 26.13 65.8564 25.9913 65.5617 25.714C65.2671 25.4367 65.1197 25.064 65.1197 24.596V23.946C64.7384 24.6567 64.1837 25.2113 63.4557 25.61C62.7451 26.0087 61.9304 26.208 61.0117 26.208C59.9197 26.208 58.9404 25.9307 58.0737 25.376C57.2244 24.8213 56.5571 24.0413 56.0717 23.036C55.6037 22.0133 55.3697 20.8433 55.3697 19.526C55.3697 18.2087 55.6037 17.056 56.0717 16.068C56.5571 15.08 57.2244 14.3173 58.0737 13.78C58.9231 13.2427 59.9024 12.974 61.0117 12.974C61.9304 12.974 62.7451 13.1647 63.4557 13.546C64.1664 13.9273 64.7124 14.4647 65.0937 15.158V8.996C65.0937 8.56267 65.2324 8.216 65.5097 7.956C65.8044 7.67867 66.1944 7.54 66.6797 7.54ZM61.8697 23.686C62.9097 23.686 63.7071 23.3307 64.2617 22.62C64.8337 21.9093 65.1197 20.8953 65.1197 19.578C65.1197 18.2607 64.8337 17.2553 64.2617 16.562C63.7071 15.8513 62.9184 15.496 61.8957 15.496C60.8557 15.496 60.0497 15.8427 59.4777 16.536C58.9057 17.2293 58.6197 18.226 58.6197 19.526C58.6197 20.8433 58.9057 21.866 59.4777 22.594C60.0497 23.322 60.8471 23.686 61.8697 23.686ZM76.809 26.208C75.5436 26.208 74.4256 25.9393 73.455 25.402C72.5016 24.8647 71.765 24.102 71.245 23.114C70.725 22.126 70.465 20.9733 70.465 19.656C70.465 18.3387 70.7336 17.1773 71.271 16.172C71.8256 15.1493 72.597 14.3607 73.585 13.806C74.573 13.2513 75.7083 12.974 76.991 12.974C77.667 12.974 78.343 13.0693 79.019 13.26C79.7123 13.4507 80.319 13.7107 80.839 14.04C81.3936 14.404 81.671 14.8633 81.671 15.418C81.671 15.7993 81.5756 16.1113 81.385 16.354C81.2116 16.5793 80.9776 16.692 80.683 16.692C80.4923 16.692 80.293 16.6487 80.085 16.562C79.877 16.4753 79.669 16.3713 79.461 16.25C79.0796 16.0247 78.7156 15.8513 78.369 15.73C78.0223 15.5913 77.6236 15.522 77.173 15.522C76.0983 15.522 75.2663 15.8773 74.677 16.588C74.105 17.2813 73.819 18.2867 73.819 19.604C73.819 20.904 74.105 21.9093 74.677 22.62C75.2663 23.3133 76.0983 23.66 77.173 23.66C77.6063 23.66 77.9876 23.5993 78.317 23.478C78.6636 23.3393 79.045 23.1573 79.461 22.932C79.721 22.776 79.9463 22.6633 80.137 22.594C80.3276 22.5073 80.5183 22.464 80.709 22.464C80.9863 22.464 81.2203 22.5853 81.411 22.828C81.6016 23.0707 81.697 23.374 81.697 23.738C81.697 24.0327 81.6276 24.2927 81.489 24.518C81.3676 24.726 81.1596 24.9167 80.865 25.09C80.3276 25.4367 79.7036 25.714 78.993 25.922C78.2823 26.1127 77.5543 26.208 76.809 26.208ZM88.8543 12.974C90.6223 12.974 91.9309 13.416 92.7803 14.3C93.6469 15.1667 94.0803 16.4927 94.0803 18.278V24.622C94.0803 25.09 93.9416 25.4627 93.6643 25.74C93.3869 26 93.0056 26.13 92.5203 26.13C92.0696 26.13 91.6969 25.9913 91.4023 25.714C91.1249 25.4367 90.9863 25.0727 90.9863 24.622V24.05C90.6916 24.726 90.2236 25.2547 89.5823 25.636C88.9583 26.0173 88.2303 26.208 87.3983 26.208C86.5489 26.208 85.7776 26.0347 85.0843 25.688C84.3909 25.3413 83.8449 24.8647 83.4463 24.258C83.0476 23.6513 82.8483 22.9753 82.8483 22.23C82.8483 21.294 83.0823 20.5573 83.5503 20.02C84.0356 19.4827 84.8156 19.0927 85.8903 18.85C86.9649 18.6073 88.4469 18.486 90.3363 18.486H90.9863V17.888C90.9863 17.0387 90.8043 16.4233 90.4403 16.042C90.0763 15.6433 89.4869 15.444 88.6723 15.444C88.1696 15.444 87.6583 15.522 87.1383 15.678C86.6183 15.8167 86.0029 16.0247 85.2923 16.302C84.8416 16.5273 84.5123 16.64 84.3043 16.64C83.9923 16.64 83.7323 16.5273 83.5243 16.302C83.3336 16.0767 83.2383 15.782 83.2383 15.418C83.2383 15.1233 83.3076 14.872 83.4463 14.664C83.6023 14.4387 83.8536 14.2307 84.2003 14.04C84.8069 13.7107 85.5263 13.4507 86.3583 13.26C87.2076 13.0693 88.0396 12.974 88.8543 12.974ZM88.0483 23.868C88.9149 23.868 89.6169 23.582 90.1543 23.01C90.7089 22.4207 90.9863 21.6667 90.9863 20.748V20.202H90.5183C89.3569 20.202 88.4556 20.254 87.8143 20.358C87.1729 20.462 86.7136 20.644 86.4363 20.904C86.1589 21.164 86.0203 21.5193 86.0203 21.97C86.0203 22.5247 86.2109 22.984 86.5923 23.348C86.9909 23.6947 87.4763 23.868 88.0483 23.868ZM101.465 26.208C99.576 26.208 98.0506 25.8353 96.8893 25.09C96.3346 24.7607 96.0573 24.2927 96.0573 23.686C96.0573 23.3393 96.1526 23.062 96.3433 22.854C96.534 22.6287 96.768 22.516 97.0453 22.516C97.34 22.516 97.7473 22.6547 98.2673 22.932C98.822 23.192 99.3246 23.3913 99.7753 23.53C100.243 23.6687 100.833 23.738 101.543 23.738C102.271 23.738 102.835 23.6167 103.233 23.374C103.649 23.1313 103.857 22.7933 103.857 22.36C103.857 22.0653 103.771 21.8313 103.597 21.658C103.441 21.4847 103.147 21.3287 102.713 21.19C102.297 21.034 101.656 20.8607 100.789 20.67C99.2466 20.358 98.1373 19.916 97.4613 19.344C96.8026 18.772 96.4733 17.9833 96.4733 16.978C96.4733 16.2153 96.6986 15.5307 97.1493 14.924C97.6 14.3 98.2153 13.8233 98.9953 13.494C99.7926 13.1473 100.694 12.974 101.699 12.974C102.427 12.974 103.129 13.0693 103.805 13.26C104.481 13.4333 105.088 13.6933 105.625 14.04C106.18 14.3867 106.457 14.846 106.457 15.418C106.457 15.7647 106.362 16.0593 106.171 16.302C105.981 16.5273 105.747 16.64 105.469 16.64C105.279 16.64 105.088 16.6053 104.897 16.536C104.724 16.4493 104.499 16.328 104.221 16.172C103.719 15.912 103.285 15.7213 102.921 15.6C102.557 15.4613 102.107 15.392 101.569 15.392C100.928 15.392 100.417 15.522 100.035 15.782C99.6713 16.042 99.4893 16.3973 99.4893 16.848C99.4893 17.2813 99.68 17.6107 100.061 17.836C100.443 18.0613 101.179 18.2867 102.271 18.512C103.433 18.7547 104.343 19.032 105.001 19.344C105.66 19.656 106.128 20.046 106.405 20.514C106.7 20.982 106.847 21.58 106.847 22.308C106.847 23.4867 106.353 24.4313 105.365 25.142C104.395 25.8527 103.095 26.208 101.465 26.208ZM115.439 23.738C116.306 23.79 116.739 24.18 116.739 24.908C116.739 25.324 116.566 25.6447 116.219 25.87C115.89 26.078 115.413 26.1647 114.789 26.13L114.087 26.078C111.175 25.87 109.719 24.31 109.719 21.398V15.73H108.419C107.951 15.73 107.587 15.626 107.327 15.418C107.085 15.21 106.963 14.9067 106.963 14.508C106.963 14.1093 107.085 13.806 107.327 13.598C107.587 13.39 107.951 13.286 108.419 13.286H109.719V10.894C109.719 10.426 109.867 10.0533 110.161 9.776C110.456 9.49867 110.855 9.36 111.357 9.36C111.843 9.36 112.233 9.49867 112.527 9.776C112.822 10.0533 112.969 10.426 112.969 10.894V13.286H115.179C115.647 13.286 116.003 13.39 116.245 13.598C116.505 13.806 116.635 14.1093 116.635 14.508C116.635 14.9067 116.505 15.21 116.245 15.418C116.003 15.626 115.647 15.73 115.179 15.73H112.969V21.632C112.969 22.9147 113.559 23.5993 114.737 23.686L115.439 23.738ZM119.525 26.156C119.057 26.156 118.667 26.026 118.355 25.766C118.06 25.4887 117.913 25.0987 117.913 24.596V14.56C117.913 14.0573 118.06 13.676 118.355 13.416C118.667 13.156 119.057 13.026 119.525 13.026C119.993 13.026 120.383 13.156 120.695 13.416C121.007 13.676 121.163 14.0573 121.163 14.56V24.596C121.163 25.0987 121.007 25.4887 120.695 25.766C120.383 26.026 119.993 26.156 119.525 26.156ZM119.525 10.712C118.936 10.712 118.468 10.556 118.121 10.244C117.774 9.91467 117.601 9.49 117.601 8.97C117.601 8.45 117.774 8.034 118.121 7.722C118.468 7.41 118.936 7.254 119.525 7.254C120.097 7.254 120.556 7.41 120.903 7.722C121.267 8.034 121.449 8.45 121.449 8.97C121.449 9.49 121.276 9.91467 120.929 10.244C120.582 10.556 120.114 10.712 119.525 10.712ZM129.637 26.208C128.371 26.208 127.253 25.9393 126.283 25.402C125.329 24.8647 124.593 24.102 124.073 23.114C123.553 22.126 123.293 20.9733 123.293 19.656C123.293 18.3387 123.561 17.1773 124.099 16.172C124.653 15.1493 125.425 14.3607 126.413 13.806C127.401 13.2513 128.536 12.974 129.819 12.974C130.495 12.974 131.171 13.0693 131.847 13.26C132.54 13.4507 133.147 13.7107 133.667 14.04C134.221 14.404 134.499 14.8633 134.499 15.418C134.499 15.7993 134.403 16.1113 134.213 16.354C134.039 16.5793 133.805 16.692 133.511 16.692C133.32 16.692 133.121 16.6487 132.913 16.562C132.705 16.4753 132.497 16.3713 132.289 16.25C131.907 16.0247 131.543 15.8513 131.197 15.73C130.85 15.5913 130.451 15.522 130.001 15.522C128.926 15.522 128.094 15.8773 127.505 16.588C126.933 17.2813 126.647 18.2867 126.647 19.604C126.647 20.904 126.933 21.9093 127.505 22.62C128.094 23.3133 128.926 23.66 130.001 23.66C130.434 23.66 130.815 23.5993 131.145 23.478C131.491 23.3393 131.873 23.1573 132.289 22.932C132.549 22.776 132.774 22.6633 132.965 22.594C133.155 22.5073 133.346 22.464 133.537 22.464C133.814 22.464 134.048 22.5853 134.239 22.828C134.429 23.0707 134.525 23.374 134.525 23.738C134.525 24.0327 134.455 24.2927 134.317 24.518C134.195 24.726 133.987 24.9167 133.693 25.09C133.155 25.4367 132.531 25.714 131.821 25.922C131.11 26.1127 130.382 26.208 129.637 26.208Z" fill="#25D06A"/>
<line x1="16" y1="4" x2="16" y2="24" stroke="#25D06A" stroke-width="4" stroke-linecap="round"/>
<line x1="9" y1="12" x2="9" y2="24" stroke="#25D06A" stroke-width="4" stroke-linecap="round"/>
<line x1="2" y1="20" x2="2" y2="24" stroke="#25D06A" stroke-width="4" stroke-linecap="round"/>
</svg>
