<svg width="287" height="75" viewBox="0 0 287 75" fill="none" xmlns="http://www.w3.org/2000/svg">
<path d="M58.1481 56.3311C57.0813 56.3311 56.2169 56.0184 55.5548 55.393C54.9294 54.7309 54.6167 53.8481 54.6167 52.7445V20.4655C54.6167 19.3987 54.911 18.5711 55.4996 17.9825C56.1249 17.3939 56.971 17.0997 58.0378 17.0997H71.6115C75.7682 17.0997 79.0053 18.148 81.3228 20.2448C83.6402 22.3048 84.799 25.2108 84.799 28.9629C84.799 32.715 83.6402 35.6394 81.3228 37.7362C79.0053 39.8329 75.7682 40.8813 71.6115 40.8813H61.7347V52.7445C61.7347 53.8481 61.4036 54.7309 60.7415 55.393C60.1161 56.0184 59.2517 56.3311 58.1481 56.3311ZM70.7286 35.4187C75.6211 35.4187 78.0673 33.2851 78.0673 29.0181C78.0673 24.751 75.6211 22.6174 70.7286 22.6174H61.7347V35.4187H70.7286ZM100.667 56.4414C97.908 56.4414 95.4802 55.8713 93.3834 54.7309C91.3235 53.5906 89.7233 51.9536 88.583 49.8201C87.4426 47.6865 86.8725 45.2035 86.8725 42.3711C86.8725 39.5386 87.4426 37.074 88.583 34.9773C89.7233 32.8437 91.3235 31.2068 93.3834 30.0664C95.4802 28.9261 97.908 28.3559 100.667 28.3559C103.426 28.3559 105.835 28.9261 107.895 30.0664C109.992 31.2068 111.592 32.8437 112.696 34.9773C113.836 37.074 114.406 39.5386 114.406 42.3711C114.406 45.2035 113.836 47.6865 112.696 49.8201C111.592 51.9536 109.992 53.5906 107.895 54.7309C105.835 55.8713 103.426 56.4414 100.667 56.4414ZM100.612 51.0892C102.856 51.0892 104.566 50.3535 105.743 48.8821C106.92 47.4107 107.509 45.2403 107.509 42.3711C107.509 39.5386 106.92 37.3867 105.743 35.9153C104.566 34.4071 102.874 33.653 100.667 33.653C98.4598 33.653 96.7493 34.4071 95.5354 35.9153C94.3582 37.3867 93.7697 39.5386 93.7697 42.3711C93.7697 45.2403 94.3582 47.4107 95.5354 48.8821C96.7125 50.3535 98.4046 51.0892 100.612 51.0892ZM141.509 16.8238C142.539 16.8238 143.385 17.1181 144.047 17.7066C144.71 18.2952 145.041 19.0677 145.041 20.0241V53.0204C145.041 54.0136 144.728 54.8045 144.103 55.393C143.477 55.9816 142.65 56.2759 141.62 56.2759C140.59 56.2759 139.762 55.9816 139.137 55.393C138.511 54.8045 138.199 54.0136 138.199 53.0204V51.641C137.389 53.1491 136.212 54.3263 134.667 55.1723C133.159 56.0184 131.43 56.4414 129.48 56.4414C127.163 56.4414 125.085 55.8529 123.245 54.6757C121.443 53.4986 120.027 51.8433 118.997 49.7097C118.003 47.5394 117.507 45.0564 117.507 42.2607C117.507 39.4651 118.003 37.0188 118.997 34.9221C120.027 32.8253 121.443 31.2068 123.245 30.0664C125.048 28.9261 127.126 28.3559 129.48 28.3559C131.43 28.3559 133.159 28.7606 134.667 29.5698C136.175 30.3791 137.334 31.5195 138.143 32.9909V19.9137C138.143 18.9941 138.438 18.2584 139.026 17.7066C139.652 17.1181 140.479 16.8238 141.509 16.8238ZM131.301 51.0892C133.508 51.0892 135.201 50.3351 136.378 48.8269C137.592 47.3187 138.199 45.1668 138.199 42.3711C138.199 39.5754 137.592 37.4419 136.378 35.9705C135.201 34.4623 133.527 33.7082 131.357 33.7082C129.149 33.7082 127.439 34.4439 126.225 35.9153C125.011 37.3867 124.404 39.5018 124.404 42.2607C124.404 45.0564 125.011 47.2267 126.225 48.7717C127.439 50.3167 129.131 51.0892 131.301 51.0892ZM163.006 56.4414C160.32 56.4414 157.948 55.8713 155.888 54.7309C153.865 53.5906 152.301 51.972 151.198 49.8753C150.094 47.7785 149.542 45.3323 149.542 42.5366C149.542 39.7409 150.113 37.2763 151.253 35.1428C152.43 32.9725 154.067 31.2987 156.164 30.1216C158.26 28.9445 160.67 28.3559 163.392 28.3559C164.827 28.3559 166.261 28.5583 167.696 28.9629C169.167 29.3675 170.455 29.9193 171.558 30.6182C172.735 31.3907 173.324 32.3655 173.324 33.5426C173.324 34.3519 173.122 35.0141 172.717 35.529C172.349 36.0073 171.853 36.2464 171.227 36.2464C170.823 36.2464 170.4 36.1544 169.958 35.9705C169.517 35.7865 169.075 35.5658 168.634 35.3083C167.825 34.8301 167.052 34.4623 166.316 34.2048C165.581 33.9105 164.735 33.7634 163.778 33.7634C161.498 33.7634 159.732 34.5175 158.481 36.0256C157.267 37.4971 156.66 39.6306 156.66 42.4263C156.66 45.1852 157.267 47.3187 158.481 48.8269C159.732 50.2983 161.498 51.034 163.778 51.034C164.698 51.034 165.507 50.9053 166.206 50.6478C166.942 50.3535 167.751 49.9672 168.634 49.489C169.186 49.158 169.664 48.9189 170.068 48.7717C170.473 48.5878 170.878 48.4958 171.282 48.4958C171.871 48.4958 172.368 48.7533 172.772 49.2683C173.177 49.7833 173.379 50.427 173.379 51.1995C173.379 51.8249 173.232 52.3767 172.938 52.8549C172.68 53.2963 172.239 53.7009 171.613 54.0688C170.473 54.8045 169.149 55.393 167.641 55.8345C166.132 56.2391 164.587 56.4414 163.006 56.4414ZM188.569 28.3559C192.321 28.3559 195.098 29.294 196.9 31.17C198.74 33.0093 199.659 35.8233 199.659 39.6122V53.0756C199.659 54.0688 199.365 54.8597 198.776 55.4482C198.188 56 197.379 56.2759 196.349 56.2759C195.392 56.2759 194.601 55.9816 193.976 55.393C193.387 54.8045 193.093 54.032 193.093 53.0756V51.8617C192.468 53.2963 191.475 54.4182 190.114 55.2275C188.789 56.0368 187.244 56.4414 185.479 56.4414C183.676 56.4414 182.039 56.0736 180.568 55.3379C179.096 54.6022 177.938 53.5906 177.092 52.3031C176.246 51.0156 175.822 49.581 175.822 47.9992C175.822 46.0128 176.319 44.4495 177.312 43.3091C178.342 42.1688 179.998 41.3411 182.278 40.8261C184.559 40.3111 187.704 40.0536 191.714 40.0536H193.093V38.7845C193.093 36.9821 192.707 35.6762 191.934 34.8669C191.162 34.0209 189.911 33.5978 188.182 33.5978C187.116 33.5978 186.03 33.7634 184.927 34.0944C183.823 34.3887 182.517 34.8301 181.009 35.4187C180.053 35.8969 179.354 36.136 178.912 36.136C178.25 36.136 177.699 35.8969 177.257 35.4187C176.852 34.9405 176.65 34.3151 176.65 33.5426C176.65 32.9173 176.797 32.3839 177.092 31.9425C177.423 31.4643 177.956 31.0229 178.692 30.6182C179.979 29.9193 181.506 29.3675 183.271 28.9629C185.074 28.5583 186.84 28.3559 188.569 28.3559ZM186.858 51.4754C188.697 51.4754 190.187 50.8685 191.327 49.6546C192.505 48.4039 193.093 46.8037 193.093 44.8541V43.6954H192.1C189.635 43.6954 187.722 43.8057 186.361 44.0264C185 44.2471 184.026 44.6334 183.437 45.1852C182.848 45.7369 182.554 46.491 182.554 47.4474C182.554 48.6246 182.959 49.5994 183.768 50.3719C184.614 51.1076 185.644 51.4754 186.858 51.4754ZM215.332 56.4414C211.322 56.4414 208.085 55.6505 205.621 54.0688C204.444 53.3699 203.855 52.3767 203.855 51.0892C203.855 50.3535 204.057 49.7649 204.462 49.3235C204.867 48.8453 205.363 48.6062 205.952 48.6062C206.577 48.6062 207.441 48.9005 208.545 49.489C209.722 50.0408 210.789 50.4638 211.745 50.7581C212.739 51.0524 213.989 51.1995 215.497 51.1995C217.042 51.1995 218.238 50.942 219.084 50.427C219.967 49.9121 220.408 49.1947 220.408 48.2751C220.408 47.6498 220.224 47.1532 219.856 46.7853C219.525 46.4175 218.9 46.0864 217.98 45.7921C217.098 45.461 215.737 45.0932 213.897 44.6886C210.623 44.0264 208.269 43.0884 206.835 41.8745C205.437 40.6606 204.738 38.9869 204.738 36.8533C204.738 35.2348 205.216 33.7817 206.172 32.4943C207.129 31.17 208.435 30.1584 210.09 29.4595C211.782 28.7238 213.695 28.3559 215.829 28.3559C217.373 28.3559 218.863 28.5583 220.298 28.9629C221.733 29.3307 223.02 29.8825 224.16 30.6182C225.337 31.3539 225.926 32.3287 225.926 33.5426C225.926 34.2783 225.724 34.9037 225.319 35.4187C224.914 35.8969 224.418 36.136 223.829 36.136C223.425 36.136 223.02 36.0624 222.615 35.9153C222.248 35.7314 221.769 35.4739 221.181 35.1428C220.114 34.591 219.194 34.1864 218.422 33.9289C217.649 33.6346 216.693 33.4875 215.553 33.4875C214.192 33.4875 213.106 33.7634 212.297 34.3151C211.525 34.8669 211.138 35.621 211.138 36.5774C211.138 37.4971 211.543 38.196 212.352 38.6742C213.162 39.1524 214.725 39.6306 217.042 40.1088C219.507 40.6238 221.438 41.2124 222.836 41.8745C224.234 42.5366 225.227 43.3643 225.816 44.3575C226.441 45.3507 226.754 46.6198 226.754 48.1648C226.754 50.6661 225.705 52.6709 223.609 54.1791C221.549 55.6873 218.79 56.4414 215.332 56.4414ZM244.988 51.1995C246.828 51.3099 247.747 52.1376 247.747 53.6825C247.747 54.5654 247.379 55.2459 246.644 55.7241C245.945 56.1655 244.933 56.3495 243.609 56.2759L242.119 56.1655C235.939 55.7241 232.849 52.4134 232.849 46.2335V34.2048H230.09C229.097 34.2048 228.325 33.9841 227.773 33.5426C227.258 33.1012 227 32.4575 227 31.6114C227 30.7654 227.258 30.1216 227.773 29.6802C228.325 29.2388 229.097 29.0181 230.09 29.0181H232.849V23.9417C232.849 22.9485 233.162 22.1576 233.787 21.5691C234.413 20.9805 235.259 20.6862 236.325 20.6862C237.355 20.6862 238.183 20.9805 238.808 21.5691C239.434 22.1576 239.746 22.9485 239.746 23.9417V29.0181H244.436C245.43 29.0181 246.184 29.2388 246.699 29.6802C247.251 30.1216 247.526 30.7654 247.526 31.6114C247.526 32.4575 247.251 33.1012 246.699 33.5426C246.184 33.9841 245.43 34.2048 244.436 34.2048H239.746V46.7301C239.746 49.4522 240.997 50.9053 243.498 51.0892L244.988 51.1995ZM253.659 56.3311C252.666 56.3311 251.838 56.0552 251.176 55.5034C250.551 54.9148 250.238 54.0872 250.238 53.0204V31.7218C250.238 30.655 250.551 29.8457 251.176 29.294C251.838 28.7422 252.666 28.4663 253.659 28.4663C254.652 28.4663 255.48 28.7422 256.142 29.294C256.804 29.8457 257.135 30.655 257.135 31.7218V53.0204C257.135 54.0872 256.804 54.9148 256.142 55.5034C255.48 56.0552 254.652 56.3311 253.659 56.3311ZM253.659 23.5555C252.408 23.5555 251.415 23.2244 250.679 22.5623C249.944 21.8633 249.576 20.9621 249.576 19.8586C249.576 18.755 249.944 17.8722 250.679 17.21C251.415 16.5479 252.408 16.2168 253.659 16.2168C254.873 16.2168 255.848 16.5479 256.583 17.21C257.356 17.8722 257.742 18.755 257.742 19.8586C257.742 20.9621 257.374 21.8633 256.639 22.5623C255.903 23.2244 254.91 23.5555 253.659 23.5555ZM275.118 56.4414C272.433 56.4414 270.06 55.8713 268 54.7309C265.977 53.5906 264.413 51.972 263.31 49.8753C262.206 47.7785 261.655 45.3323 261.655 42.5366C261.655 39.7409 262.225 37.2763 263.365 35.1428C264.542 32.9725 266.179 31.2987 268.276 30.1216C270.373 28.9445 272.782 28.3559 275.504 28.3559C276.939 28.3559 278.373 28.5583 279.808 28.9629C281.279 29.3675 282.567 29.9193 283.67 30.6182C284.848 31.3907 285.436 32.3655 285.436 33.5426C285.436 34.3519 285.234 35.0141 284.829 35.529C284.461 36.0073 283.965 36.2464 283.339 36.2464C282.935 36.2464 282.512 36.1544 282.07 35.9705C281.629 35.7865 281.187 35.5658 280.746 35.3083C279.937 34.8301 279.164 34.4623 278.429 34.2048C277.693 33.9105 276.847 33.7634 275.89 33.7634C273.61 33.7634 271.844 34.5175 270.593 36.0256C269.379 37.4971 268.772 39.6306 268.772 42.4263C268.772 45.1852 269.379 47.3187 270.593 48.8269C271.844 50.2983 273.61 51.034 275.89 51.034C276.81 51.034 277.619 50.9053 278.318 50.6478C279.054 50.3535 279.863 49.9672 280.746 49.489C281.298 49.158 281.776 48.9189 282.181 48.7717C282.585 48.5878 282.99 48.4958 283.395 48.4958C283.983 48.4958 284.48 48.7533 284.884 49.2683C285.289 49.7833 285.491 50.427 285.491 51.1995C285.491 51.8249 285.344 52.3767 285.05 52.8549C284.792 53.2963 284.351 53.7009 283.726 54.0688C282.585 54.8045 281.261 55.393 279.753 55.8345C278.245 56.2391 276.7 56.4414 275.118 56.4414Z" fill="#434B47"/>
<line x1="33.9555" y1="8.48889" x2="33.9555" y2="50.9333" stroke="#434B47" stroke-width="8.48889" stroke-linecap="round"/>
<line x1="19.1" y1="25.4667" x2="19.1" y2="50.9333" stroke="#434B47" stroke-width="8.48889" stroke-linecap="round"/>
<line x1="4.24444" y1="42.4444" x2="4.24445" y2="50.9333" stroke="#434B47" stroke-width="8.48889" stroke-linecap="round"/>
</svg>
