<svg width="362" height="21" viewBox="0 0 362 21" fill="none" xmlns="http://www.w3.org/2000/svg">
<path d="M11.2053 1.40142C11.3751 1.18919 11.5803 1.08308 11.8208 1.08308C12.0189 1.08308 12.1957 1.1609 12.3513 1.31653C12.507 1.47216 12.5848 1.66316 12.5848 1.88953C12.5848 2.10175 12.5211 2.2786 12.3938 2.42008L7.23678 8.93531V15.3444C7.23678 15.6274 7.15189 15.8467 6.98211 16.0023C6.82648 16.1579 6.62133 16.2357 6.36667 16.2357C6.112 16.2357 5.89978 16.1579 5.73 16.0023C5.57437 15.8467 5.49656 15.6274 5.49656 15.3444V8.91408L0.339556 2.42008C0.198074 2.26445 0.127333 2.0876 0.127333 1.88953C0.127333 1.66316 0.205148 1.47216 0.360778 1.31653C0.530556 1.1609 0.721556 1.08308 0.933778 1.08308C1.1743 1.08308 1.37944 1.18919 1.54922 1.40142L6.38789 7.57708L11.2053 1.40142ZM16.5833 16.2782C15.6071 16.2782 14.7441 16.0589 13.9942 15.6203C13.2585 15.1817 12.6855 14.5592 12.2752 13.7527C11.8791 12.9322 11.681 11.9842 11.681 10.909C11.681 9.83371 11.8791 8.89286 12.2752 8.08642C12.6855 7.26582 13.2585 6.63623 13.9942 6.19764C14.7441 5.75905 15.6071 5.53975 16.5833 5.53975C17.5596 5.53975 18.4226 5.75905 19.1725 6.19764C19.9223 6.63623 20.4953 7.26582 20.8915 8.08642C21.3017 8.89286 21.5069 9.83371 21.5069 10.909C21.5069 11.9842 21.3017 12.9322 20.8915 13.7527C20.4953 14.5592 19.9223 15.1817 19.1725 15.6203C18.4226 16.0589 17.5596 16.2782 16.5833 16.2782ZM16.5833 14.8563C17.602 14.8563 18.3802 14.5238 18.9178 13.8589C19.4696 13.1797 19.7455 12.1965 19.7455 10.909C19.7455 9.64979 19.4696 8.68064 18.9178 8.00153C18.366 7.30827 17.5879 6.96164 16.5833 6.96164C15.5788 6.96164 14.8007 7.30827 14.2489 8.00153C13.6971 8.68064 13.4212 9.64979 13.4212 10.909C13.4212 12.1823 13.69 13.1585 14.2277 13.8376C14.7795 14.5167 15.5647 14.8563 16.5833 14.8563ZM31.4959 5.58219C31.7647 5.58219 31.9699 5.66001 32.1114 5.81564C32.267 5.97127 32.3448 6.17642 32.3448 6.43108V15.4081C32.3448 15.6486 32.267 15.8467 32.1114 16.0023C31.9699 16.1579 31.7647 16.2357 31.4959 16.2357C31.2413 16.2357 31.0361 16.165 30.8805 16.0235C30.739 15.8679 30.6683 15.6698 30.6683 15.4293V14.3682C30.3429 14.9907 29.883 15.4647 29.2888 15.7901C28.7087 16.1155 28.0509 16.2782 27.3152 16.2782C26.0843 16.2782 25.1576 15.9386 24.535 15.2595C23.9125 14.5663 23.6013 13.5476 23.6013 12.2035V6.43108C23.6013 6.17642 23.6791 5.97127 23.8347 5.81564C23.9903 5.66001 24.2026 5.58219 24.4714 5.58219C24.7402 5.58219 24.9453 5.66001 25.0868 5.81564C25.2425 5.97127 25.3203 6.17642 25.3203 6.43108V12.1611C25.3203 13.0807 25.5042 13.7598 25.872 14.1984C26.2399 14.6229 26.82 14.8351 27.6123 14.8351C28.5177 14.8351 29.2464 14.545 29.7982 13.965C30.3499 13.3707 30.6258 12.5926 30.6258 11.6305V6.43108C30.6258 6.17642 30.7036 5.97127 30.8593 5.81564C31.0149 5.66001 31.2271 5.58219 31.4959 5.58219ZM40.2299 5.58219C40.8241 5.53975 41.1212 5.78027 41.1212 6.30375C41.1212 6.53012 41.0575 6.71405 40.9302 6.85553C40.8029 6.98286 40.5836 7.06068 40.2723 7.08897L39.6356 7.15264C38.6877 7.23753 37.9803 7.57708 37.5134 8.17131C37.0607 8.75138 36.8343 9.43756 36.8343 10.2299V15.3869C36.8343 15.6698 36.7565 15.882 36.6009 16.0235C36.4452 16.165 36.2401 16.2357 35.9854 16.2357C35.7308 16.2357 35.5185 16.165 35.3488 16.0235C35.1931 15.8679 35.1153 15.6557 35.1153 15.3869V6.43108C35.1153 6.16227 35.2002 5.95712 35.37 5.81564C35.5398 5.66001 35.7449 5.58219 35.9854 5.58219C36.2118 5.58219 36.4028 5.66001 36.5584 5.81564C36.7141 5.95712 36.7919 6.15519 36.7919 6.40986V7.59831C37.089 6.97579 37.5064 6.50182 38.044 6.17642C38.5958 5.85101 39.2254 5.66001 39.9328 5.60342L40.2299 5.58219ZM51.7822 2.52619C51.0324 2.58279 50.4664 2.82331 50.0844 3.24775C49.7024 3.65805 49.5114 4.28056 49.5114 5.1153V5.79442H51.8671C52.1076 5.79442 52.2916 5.85808 52.4189 5.98542C52.5462 6.11275 52.6099 6.28253 52.6099 6.49475C52.6099 6.70697 52.5462 6.86968 52.4189 6.98286C52.2916 7.09605 52.1076 7.15264 51.8671 7.15264H49.5114V15.3869C49.5114 15.6557 49.4266 15.8679 49.2568 16.0235C49.1011 16.165 48.9031 16.2357 48.6626 16.2357C48.4079 16.2357 48.1957 16.165 48.0259 16.0235C47.8703 15.8679 47.7924 15.6557 47.7924 15.3869V7.15264H46.3706C46.13 7.15264 45.939 7.09605 45.7976 6.98286C45.6702 6.85553 45.6066 6.69282 45.6066 6.49475C45.6066 6.28253 45.6702 6.11275 45.7976 5.98542C45.939 5.85808 46.13 5.79442 46.3706 5.79442H47.7924V5.41242C47.7924 4.13908 48.1108 3.14164 48.7474 2.42008C49.3841 1.68438 50.2967 1.27408 51.4851 1.18919L52.0369 1.14675C52.4047 1.11845 52.6665 1.15382 52.8221 1.25286C52.9919 1.3519 53.0768 1.52875 53.0768 1.78342C53.0768 2.19371 52.8292 2.42716 52.334 2.48375L51.7822 2.52619ZM57.8781 5.53975C60.4672 5.53975 61.7618 6.89797 61.7618 9.61442V15.3869C61.7618 15.6415 61.684 15.8467 61.5284 16.0023C61.3869 16.1579 61.1888 16.2357 60.9341 16.2357C60.6795 16.2357 60.4743 16.1579 60.3187 16.0023C60.1631 15.8467 60.0852 15.6415 60.0852 15.3869V14.3682C59.8164 14.9766 59.4061 15.4505 58.8544 15.7901C58.3026 16.1155 57.6659 16.2782 56.9444 16.2782C56.2794 16.2782 55.664 16.1438 55.098 15.875C54.5462 15.6062 54.1077 15.2312 53.7822 14.7502C53.4568 14.2692 53.2941 13.7386 53.2941 13.1585C53.2941 12.3804 53.4922 11.7791 53.8884 11.3546C54.2845 10.916 54.9353 10.6048 55.8408 10.4209C56.7463 10.2228 58.0055 10.1237 59.6184 10.1237H60.0852V9.42342C60.0852 8.57453 59.9084 7.95201 59.5547 7.55586C59.2151 7.15971 58.6563 6.96164 57.8781 6.96164C56.9161 6.96164 55.9398 7.22338 54.9495 7.74686C54.5675 7.98738 54.2987 8.10764 54.143 8.10764C53.9732 8.10764 53.8318 8.04397 53.7186 7.91664C53.6054 7.78931 53.5488 7.6266 53.5488 7.42853C53.5488 7.23045 53.6054 7.06068 53.7186 6.91919C53.8459 6.76356 54.044 6.60793 54.3128 6.45231C54.808 6.16934 55.3668 5.95005 55.9894 5.79442C56.626 5.62464 57.2556 5.53975 57.8781 5.53975ZM57.1778 14.92C58.0267 14.92 58.72 14.637 59.2576 14.0711C59.8094 13.491 60.0852 12.7482 60.0852 11.8427V11.2273H59.7032C58.4582 11.2273 57.5103 11.2839 56.8595 11.3971C56.2087 11.4961 55.7418 11.673 55.4588 11.9276C55.19 12.1682 55.0556 12.5289 55.0556 13.01C55.0556 13.5617 55.2537 14.0216 55.6498 14.3894C56.0601 14.7431 56.5694 14.92 57.1778 14.92ZM71.9331 6.11275C72.0887 5.77319 72.3363 5.60342 72.6758 5.60342C72.8881 5.60342 73.0791 5.67416 73.2488 5.81564C73.4186 5.95712 73.5035 6.13397 73.5035 6.34619C73.5035 6.47353 73.4752 6.58671 73.4186 6.68575L69.2803 15.5991C69.1954 15.783 69.0681 15.9316 68.8983 16.0447C68.7285 16.1438 68.5446 16.1933 68.3465 16.1933C68.1626 16.1933 67.9857 16.1438 67.8159 16.0447C67.6462 15.9316 67.5118 15.783 67.4127 15.5991L63.2956 6.68575C63.239 6.58671 63.2107 6.4806 63.2107 6.36742C63.2107 6.15519 63.3027 5.97127 63.4866 5.81564C63.6847 5.66001 63.8969 5.58219 64.1233 5.58219C64.2648 5.58219 64.3992 5.62464 64.5265 5.70953C64.668 5.79442 64.7741 5.91468 64.8448 6.0703L68.3889 14.0286L71.9331 6.11275ZM79.1234 16.2782C78.1472 16.2782 77.2841 16.0589 76.5343 15.6203C75.7986 15.1817 75.2256 14.5592 74.8153 13.7527C74.4191 12.9322 74.2211 11.9842 74.2211 10.909C74.2211 9.83371 74.4191 8.89286 74.8153 8.08642C75.2256 7.26582 75.7986 6.63623 76.5343 6.19764C77.2841 5.75905 78.1472 5.53975 79.1234 5.53975C80.0996 5.53975 80.9627 5.75905 81.7125 6.19764C82.4624 6.63623 83.0354 7.26582 83.4315 8.08642C83.8418 8.89286 84.047 9.83371 84.047 10.909C84.047 11.9842 83.8418 12.9322 83.4315 13.7527C83.0354 14.5592 82.4624 15.1817 81.7125 15.6203C80.9627 16.0589 80.0996 16.2782 79.1234 16.2782ZM79.1234 14.8563C80.1421 14.8563 80.9202 14.5238 81.4579 13.8589C82.0096 13.1797 82.2855 12.1965 82.2855 10.909C82.2855 9.64979 82.0096 8.68064 81.4579 8.00153C80.9061 7.30827 80.1279 6.96164 79.1234 6.96164C78.1189 6.96164 77.3407 7.30827 76.789 8.00153C76.2372 8.68064 75.9613 9.64979 75.9613 10.909C75.9613 12.1823 76.2301 13.1585 76.7677 13.8376C77.3195 14.5167 78.1047 14.8563 79.1234 14.8563ZM91.2983 5.58219C91.8925 5.53975 92.1897 5.78027 92.1897 6.30375C92.1897 6.53012 92.126 6.71405 91.9987 6.85553C91.8713 6.98286 91.652 7.06068 91.3408 7.08897L90.7041 7.15264C89.7562 7.23753 89.0488 7.57708 88.5819 8.17131C88.1291 8.75138 87.9028 9.43756 87.9028 10.2299V15.3869C87.9028 15.6698 87.825 15.882 87.6693 16.0235C87.5137 16.165 87.3085 16.2357 87.0539 16.2357C86.7992 16.2357 86.587 16.165 86.4172 16.0235C86.2616 15.8679 86.1838 15.6557 86.1838 15.3869V6.43108C86.1838 6.16227 86.2687 5.95712 86.4384 5.81564C86.6082 5.66001 86.8134 5.58219 87.0539 5.58219C87.2803 5.58219 87.4713 5.66001 87.6269 5.81564C87.7825 5.95712 87.8603 6.15519 87.8603 6.40986V7.59831C88.1574 6.97579 88.5748 6.50182 89.1124 6.17642C89.6642 5.85101 90.2938 5.66001 91.0012 5.60342L91.2983 5.58219ZM94.1111 16.2357C93.8564 16.2357 93.6442 16.165 93.4744 16.0235C93.3188 15.8679 93.241 15.6557 93.241 15.3869V6.43108C93.241 6.16227 93.3188 5.95712 93.4744 5.81564C93.6442 5.66001 93.8564 5.58219 94.1111 5.58219C94.3658 5.58219 94.5709 5.66001 94.7265 5.81564C94.8822 5.95712 94.96 6.16227 94.96 6.43108V15.3869C94.96 15.6698 94.8822 15.882 94.7265 16.0235C94.5709 16.165 94.3658 16.2357 94.1111 16.2357ZM94.1111 3.35386C93.7715 3.35386 93.4957 3.25482 93.2834 3.05675C93.0712 2.85868 92.9651 2.59693 92.9651 2.27153C92.9651 1.96027 93.0712 1.7056 93.2834 1.50753C93.4957 1.30945 93.7715 1.21042 94.1111 1.21042C94.4507 1.21042 94.7265 1.30945 94.9388 1.50753C95.151 1.7056 95.2571 1.96027 95.2571 2.27153C95.2571 2.59693 95.151 2.85868 94.9388 3.05675C94.7265 3.25482 94.4507 3.35386 94.1111 3.35386ZM102.69 14.8775C103.185 14.92 103.433 15.1463 103.433 15.5566C103.433 15.7972 103.341 15.9811 103.157 16.1084C102.987 16.2216 102.725 16.264 102.372 16.2357L101.799 16.1933C100.667 16.1084 99.8319 15.7689 99.2943 15.1746C98.7567 14.5804 98.4878 13.682 98.4878 12.4794V7.15264H97.066C96.8254 7.15264 96.6344 7.09605 96.493 6.98286C96.3656 6.85553 96.302 6.69282 96.302 6.49475C96.302 6.28253 96.3656 6.11275 96.493 5.98542C96.6344 5.85808 96.8254 5.79442 97.066 5.79442H98.4878V3.39631C98.4878 3.12749 98.5657 2.92234 98.7213 2.78086C98.8769 2.62523 99.0891 2.54742 99.358 2.54742C99.6126 2.54742 99.8178 2.62523 99.9734 2.78086C100.129 2.92234 100.207 3.12749 100.207 3.39631V5.79442H102.563C102.789 5.79442 102.966 5.85808 103.093 5.98542C103.235 6.11275 103.305 6.28253 103.305 6.49475C103.305 6.69282 103.235 6.85553 103.093 6.98286C102.966 7.09605 102.789 7.15264 102.563 7.15264H100.207V12.5643C100.207 13.3425 100.362 13.9084 100.674 14.2621C100.999 14.6016 101.48 14.7926 102.117 14.8351L102.69 14.8775ZM112.703 13.7315C112.859 13.7315 112.993 13.7952 113.107 13.9225C113.22 14.0499 113.276 14.2126 113.276 14.4106C113.276 14.7643 113.029 15.0897 112.534 15.3869C112.024 15.684 111.487 15.9103 110.921 16.066C110.355 16.2075 109.803 16.2782 109.265 16.2782C107.667 16.2782 106.4 15.8042 105.467 14.8563C104.547 13.9084 104.087 12.5997 104.087 10.9302C104.087 9.86908 104.292 8.93531 104.703 8.12886C105.113 7.30827 105.686 6.6716 106.422 6.21886C107.171 5.76612 108.02 5.53975 108.968 5.53975C110.312 5.53975 111.381 5.97834 112.173 6.85553C112.965 7.73271 113.361 8.92116 113.361 10.4209C113.361 10.7038 113.305 10.909 113.192 11.0363C113.078 11.1636 112.894 11.2273 112.64 11.2273H105.806C105.934 13.6608 107.087 14.8775 109.265 14.8775C109.817 14.8775 110.291 14.8068 110.687 14.6653C111.083 14.5097 111.508 14.3045 111.961 14.0499C112.328 13.8376 112.576 13.7315 112.703 13.7315ZM108.99 6.87675C108.084 6.87675 107.355 7.15971 106.804 7.72564C106.266 8.29156 105.948 9.09094 105.849 10.1237H111.855C111.826 9.07679 111.564 8.27742 111.069 7.72564C110.574 7.15971 109.881 6.87675 108.99 6.87675ZM125.716 5.53975C126.621 5.53975 127.421 5.76612 128.114 6.21886C128.807 6.6716 129.345 7.30827 129.727 8.12886C130.109 8.93531 130.3 9.87616 130.3 10.9514C130.3 12.0267 130.109 12.9675 129.727 13.774C129.345 14.5663 128.807 15.1817 128.114 15.6203C127.435 16.0589 126.636 16.2782 125.716 16.2782C124.91 16.2782 124.202 16.1013 123.594 15.7476C123 15.3939 122.547 14.8917 122.236 14.2409V19.2281C122.236 19.4827 122.158 19.6808 122.002 19.8223C121.861 19.9779 121.655 20.0557 121.387 20.0557C121.118 20.0557 120.906 19.9779 120.75 19.8223C120.594 19.6667 120.517 19.4686 120.517 19.2281V6.43108C120.517 6.17642 120.594 5.97127 120.75 5.81564C120.906 5.66001 121.118 5.58219 121.387 5.58219C121.655 5.58219 121.861 5.66001 122.002 5.81564C122.158 5.97127 122.236 6.17642 122.236 6.43108V7.57708C122.547 6.92627 123 6.42401 123.594 6.0703C124.202 5.7166 124.91 5.53975 125.716 5.53975ZM125.376 14.8563C126.381 14.8563 127.159 14.5167 127.711 13.8376C128.263 13.1585 128.539 12.1965 128.539 10.9514C128.539 9.70638 128.263 8.73723 127.711 8.04397C127.159 7.33656 126.381 6.98286 125.376 6.98286C124.372 6.98286 123.594 7.32242 123.042 8.00153C122.504 8.68064 122.236 9.64979 122.236 10.909C122.236 12.1682 122.504 13.1444 123.042 13.8376C123.594 14.5167 124.372 14.8563 125.376 14.8563ZM136.731 16.2782C135.755 16.2782 134.892 16.0589 134.142 15.6203C133.406 15.1817 132.833 14.5592 132.423 13.7527C132.027 12.9322 131.829 11.9842 131.829 10.909C131.829 9.83371 132.027 8.89286 132.423 8.08642C132.833 7.26582 133.406 6.63623 134.142 6.19764C134.892 5.75905 135.755 5.53975 136.731 5.53975C137.707 5.53975 138.57 5.75905 139.32 6.19764C140.07 6.63623 140.643 7.26582 141.039 8.08642C141.449 8.89286 141.655 9.83371 141.655 10.909C141.655 11.9842 141.449 12.9322 141.039 13.7527C140.643 14.5592 140.07 15.1817 139.32 15.6203C138.57 16.0589 137.707 16.2782 136.731 16.2782ZM136.731 14.8563C137.75 14.8563 138.528 14.5238 139.065 13.8589C139.617 13.1797 139.893 12.1965 139.893 10.909C139.893 9.64979 139.617 8.68064 139.065 8.00153C138.514 7.30827 137.735 6.96164 136.731 6.96164C135.726 6.96164 134.948 7.30827 134.397 8.00153C133.845 8.68064 133.569 9.64979 133.569 10.909C133.569 12.1823 133.838 13.1585 134.375 13.8376C134.927 14.5167 135.712 14.8563 136.731 14.8563ZM152.089 1.06186C152.358 1.06186 152.57 1.13968 152.726 1.2953C152.882 1.45093 152.959 1.64901 152.959 1.88953V15.3869C152.959 15.6415 152.882 15.8467 152.726 16.0023C152.57 16.1579 152.358 16.2357 152.089 16.2357C151.82 16.2357 151.608 16.1579 151.453 16.0023C151.311 15.8467 151.24 15.6415 151.24 15.3869V14.2409C150.929 14.8917 150.469 15.3939 149.861 15.7476C149.267 16.1013 148.566 16.2782 147.76 16.2782C146.854 16.2782 146.055 16.0518 145.362 15.5991C144.669 15.1463 144.131 14.5167 143.749 13.7103C143.367 12.8897 143.176 11.9418 143.176 10.8665C143.176 9.80542 143.367 8.87164 143.749 8.06519C144.131 7.25875 144.669 6.63623 145.362 6.19764C146.055 5.75905 146.854 5.53975 147.76 5.53975C148.566 5.53975 149.267 5.7166 149.861 6.0703C150.469 6.42401 150.929 6.92627 151.24 7.57708V1.88953C151.24 1.63486 151.311 1.43679 151.453 1.2953C151.608 1.13968 151.82 1.06186 152.089 1.06186ZM148.099 14.8563C149.104 14.8563 149.875 14.5167 150.413 13.8376C150.964 13.1444 151.24 12.1682 151.24 10.909C151.24 9.64979 150.964 8.68064 150.413 8.00153C149.875 7.32242 149.104 6.98286 148.099 6.98286C147.095 6.98286 146.31 7.32242 145.744 8.00153C145.192 8.68064 144.916 9.63564 144.916 10.8665C144.916 12.1257 145.192 13.109 145.744 13.8164C146.31 14.5097 147.095 14.8563 148.099 14.8563ZM159.985 16.2782C159.022 16.2782 158.167 16.0589 157.417 15.6203C156.681 15.1817 156.108 14.5592 155.698 13.7527C155.302 12.9463 155.103 12.0125 155.103 10.9514C155.103 9.89031 155.309 8.94945 155.719 8.12886C156.143 7.30827 156.73 6.6716 157.48 6.21886C158.23 5.76612 159.093 5.53975 160.069 5.53975C160.607 5.53975 161.138 5.61756 161.661 5.77319C162.199 5.91468 162.666 6.1269 163.062 6.40986C163.316 6.57964 163.493 6.74942 163.592 6.91919C163.706 7.07482 163.762 7.25168 163.762 7.44975C163.762 7.64782 163.706 7.81053 163.592 7.93786C163.493 8.06519 163.359 8.12886 163.189 8.12886C163.09 8.12886 162.984 8.10056 162.871 8.04397C162.758 7.98738 162.659 7.93079 162.574 7.87419C162.503 7.8176 162.453 7.78223 162.425 7.76808C162.057 7.52756 161.704 7.33656 161.364 7.19508C161.039 7.0536 160.635 6.98286 160.154 6.98286C159.122 6.98286 158.315 7.33656 157.735 8.04397C157.169 8.73723 156.886 9.70638 156.886 10.9514C156.886 12.1965 157.169 13.1585 157.735 13.8376C158.315 14.5167 159.122 14.8563 160.154 14.8563C160.635 14.8563 161.046 14.7856 161.385 14.6441C161.739 14.5026 162.093 14.3116 162.446 14.0711C162.602 13.972 162.751 13.8872 162.892 13.8164C163.033 13.7457 163.154 13.7103 163.253 13.7103C163.408 13.7103 163.536 13.774 163.635 13.9013C163.748 14.0286 163.805 14.1913 163.805 14.3894C163.805 14.5733 163.755 14.7431 163.656 14.8987C163.557 15.0402 163.373 15.2029 163.104 15.3869C162.708 15.6557 162.227 15.875 161.661 16.0447C161.109 16.2004 160.55 16.2782 159.985 16.2782ZM169.673 5.53975C172.262 5.53975 173.556 6.89797 173.556 9.61442V15.3869C173.556 15.6415 173.479 15.8467 173.323 16.0023C173.182 16.1579 172.983 16.2357 172.729 16.2357C172.474 16.2357 172.269 16.1579 172.113 16.0023C171.958 15.8467 171.88 15.6415 171.88 15.3869V14.3682C171.611 14.9766 171.201 15.4505 170.649 15.7901C170.097 16.1155 169.461 16.2782 168.739 16.2782C168.074 16.2782 167.459 16.1438 166.893 15.875C166.341 15.6062 165.902 15.2312 165.577 14.7502C165.252 14.2692 165.089 13.7386 165.089 13.1585C165.089 12.3804 165.287 11.7791 165.683 11.3546C166.079 10.916 166.73 10.6048 167.635 10.4209C168.541 10.2228 169.8 10.1237 171.413 10.1237H171.88V9.42342C171.88 8.57453 171.703 7.95201 171.349 7.55586C171.01 7.15971 170.451 6.96164 169.673 6.96164C168.711 6.96164 167.735 7.22338 166.744 7.74686C166.362 7.98738 166.093 8.10764 165.938 8.10764C165.768 8.10764 165.626 8.04397 165.513 7.91664C165.4 7.78931 165.343 7.6266 165.343 7.42853C165.343 7.23045 165.4 7.06068 165.513 6.91919C165.641 6.76356 165.839 6.60793 166.107 6.45231C166.603 6.16934 167.162 5.95005 167.784 5.79442C168.421 5.62464 169.05 5.53975 169.673 5.53975ZM168.972 14.92C169.821 14.92 170.515 14.637 171.052 14.0711C171.604 13.491 171.88 12.7482 171.88 11.8427V11.2273H171.498C170.253 11.2273 169.305 11.2839 168.654 11.3971C168.003 11.4961 167.536 11.673 167.253 11.9276C166.985 12.1682 166.85 12.5289 166.85 13.01C166.85 13.5617 167.048 14.0216 167.444 14.3894C167.855 14.7431 168.364 14.92 168.972 14.92ZM179.759 16.2782C179.108 16.2782 178.486 16.2004 177.892 16.0447C177.312 15.8891 176.795 15.6698 176.342 15.3869C176.088 15.2171 175.904 15.0615 175.791 14.92C175.692 14.7643 175.642 14.5804 175.642 14.3682C175.642 14.1843 175.692 14.0357 175.791 13.9225C175.904 13.7952 176.045 13.7315 176.215 13.7315C176.385 13.7315 176.632 13.8376 176.958 14.0499C177.382 14.3045 177.8 14.5097 178.21 14.6653C178.634 14.8068 179.158 14.8775 179.78 14.8775C180.544 14.8775 181.139 14.7431 181.563 14.4743C181.988 14.2055 182.2 13.8164 182.2 13.3071C182.2 12.9958 182.122 12.7482 181.966 12.5643C181.811 12.3662 181.542 12.1965 181.16 12.055C180.778 11.8993 180.219 11.7437 179.483 11.5881C178.238 11.3193 177.347 10.9585 176.809 10.5057C176.272 10.053 176.003 9.43756 176.003 8.65942C176.003 8.05105 176.173 7.51342 176.512 7.04653C176.852 6.57964 177.319 6.21179 177.913 5.94297C178.521 5.67416 179.207 5.53975 179.971 5.53975C180.523 5.53975 181.054 5.61756 181.563 5.77319C182.087 5.91468 182.546 6.11982 182.943 6.38864C183.424 6.72819 183.664 7.0819 183.664 7.44975C183.664 7.63368 183.607 7.78931 183.494 7.91664C183.381 8.04397 183.247 8.10764 183.091 8.10764C182.921 8.10764 182.667 7.98738 182.327 7.74686C181.931 7.49219 181.556 7.29412 181.202 7.15264C180.849 7.01116 180.41 6.94042 179.887 6.94042C179.222 6.94042 178.684 7.08897 178.274 7.38608C177.877 7.68319 177.679 8.07934 177.679 8.57453C177.679 8.88579 177.75 9.14045 177.892 9.33853C178.047 9.52245 178.295 9.69223 178.634 9.84786C178.988 9.98934 179.49 10.1308 180.141 10.2723C181.103 10.4845 181.846 10.718 182.37 10.9726C182.907 11.2273 183.289 11.5386 183.516 11.9064C183.742 12.2743 183.855 12.7412 183.855 13.3071C183.855 14.1984 183.48 14.92 182.73 15.4717C181.98 16.0094 180.99 16.2782 179.759 16.2782ZM190.722 14.8775C191.217 14.92 191.465 15.1463 191.465 15.5566C191.465 15.7972 191.373 15.9811 191.189 16.1084C191.019 16.2216 190.758 16.264 190.404 16.2357L189.831 16.1933C188.699 16.1084 187.864 15.7689 187.327 15.1746C186.789 14.5804 186.52 13.682 186.52 12.4794V7.15264H185.098C184.858 7.15264 184.667 7.09605 184.525 6.98286C184.398 6.85553 184.334 6.69282 184.334 6.49475C184.334 6.28253 184.398 6.11275 184.525 5.98542C184.667 5.85808 184.858 5.79442 185.098 5.79442H186.52V3.39631C186.52 3.12749 186.598 2.92234 186.754 2.78086C186.909 2.62523 187.122 2.54742 187.39 2.54742C187.645 2.54742 187.85 2.62523 188.006 2.78086C188.161 2.92234 188.239 3.12749 188.239 3.39631V5.79442H190.595C190.821 5.79442 190.998 5.85808 191.125 5.98542C191.267 6.11275 191.338 6.28253 191.338 6.49475C191.338 6.69282 191.267 6.85553 191.125 6.98286C190.998 7.09605 190.821 7.15264 190.595 7.15264H188.239V12.5643C188.239 13.3425 188.395 13.9084 188.706 14.2621C189.032 14.6016 189.513 14.7926 190.149 14.8351L190.722 14.8775ZM196.216 16.2782C195.565 16.2782 194.942 16.2004 194.348 16.0447C193.768 15.8891 193.251 15.6698 192.799 15.3869C192.544 15.2171 192.36 15.0615 192.247 14.92C192.148 14.7643 192.098 14.5804 192.098 14.3682C192.098 14.1843 192.148 14.0357 192.247 13.9225C192.36 13.7952 192.502 13.7315 192.671 13.7315C192.841 13.7315 193.089 13.8376 193.414 14.0499C193.839 14.3045 194.256 14.5097 194.666 14.6653C195.091 14.8068 195.614 14.8775 196.237 14.8775C197.001 14.8775 197.595 14.7431 198.019 14.4743C198.444 14.2055 198.656 13.8164 198.656 13.3071C198.656 12.9958 198.578 12.7482 198.423 12.5643C198.267 12.3662 197.998 12.1965 197.616 12.055C197.234 11.8993 196.675 11.7437 195.94 11.5881C194.695 11.3193 193.803 10.9585 193.266 10.5057C192.728 10.053 192.459 9.43756 192.459 8.65942C192.459 8.05105 192.629 7.51342 192.969 7.04653C193.308 6.57964 193.775 6.21179 194.369 5.94297C194.978 5.67416 195.664 5.53975 196.428 5.53975C196.98 5.53975 197.51 5.61756 198.019 5.77319C198.543 5.91468 199.003 6.11982 199.399 6.38864C199.88 6.72819 200.12 7.0819 200.12 7.44975C200.12 7.63368 200.064 7.78931 199.951 7.91664C199.837 8.04397 199.703 8.10764 199.547 8.10764C199.378 8.10764 199.123 7.98738 198.783 7.74686C198.387 7.49219 198.012 7.29412 197.659 7.15264C197.305 7.01116 196.866 6.94042 196.343 6.94042C195.678 6.94042 195.14 7.08897 194.73 7.38608C194.334 7.68319 194.136 8.07934 194.136 8.57453C194.136 8.88579 194.206 9.14045 194.348 9.33853C194.504 9.52245 194.751 9.69223 195.091 9.84786C195.444 9.98934 195.947 10.1308 196.598 10.2723C197.56 10.4845 198.302 10.718 198.826 10.9726C199.363 11.2273 199.745 11.5386 199.972 11.9064C200.198 12.2743 200.311 12.7412 200.311 13.3071C200.311 14.1984 199.936 14.92 199.187 15.4717C198.437 16.0094 197.446 16.2782 196.216 16.2782ZM203.21 13.8376C203.564 13.8376 203.847 13.9791 204.059 14.2621C204.285 14.5309 204.399 14.9412 204.399 15.493C204.399 16.6107 204.038 17.5515 203.316 18.3155C203.175 18.4712 203.012 18.549 202.828 18.549C202.687 18.549 202.559 18.4924 202.446 18.3792C202.333 18.2802 202.276 18.1599 202.276 18.0184C202.276 17.8628 202.333 17.7284 202.446 17.6152C202.814 17.2332 203.047 16.7592 203.146 16.1933C202.835 16.165 202.573 16.0518 202.361 15.8537C202.163 15.6415 202.064 15.3727 202.064 15.0473C202.064 14.6936 202.17 14.4036 202.382 14.1772C202.609 13.9508 202.885 13.8376 203.21 13.8376ZM215.42 16.2994C213.878 16.2994 212.633 15.9952 211.685 15.3869C211.232 15.118 211.006 14.736 211.006 14.2409C211.006 13.9579 211.083 13.7315 211.239 13.5617C211.395 13.3778 211.586 13.2859 211.812 13.2859C212.053 13.2859 212.385 13.399 212.809 13.6254C213.262 13.8376 213.673 14.0003 214.04 14.1135C214.422 14.2267 214.903 14.2833 215.483 14.2833C216.078 14.2833 216.538 14.1843 216.863 13.9862C217.202 13.7881 217.372 13.5122 217.372 13.1585C217.372 12.918 217.302 12.727 217.16 12.5855C217.033 12.444 216.792 12.3167 216.438 12.2035C216.099 12.0762 215.575 11.9347 214.868 11.7791C213.609 11.5244 212.703 11.1636 212.152 10.6967C211.614 10.2299 211.345 9.58612 211.345 8.76553C211.345 8.14301 211.529 7.58416 211.897 7.08897C212.265 6.57964 212.767 6.19056 213.404 5.92175C214.055 5.63879 214.79 5.4973 215.611 5.4973C216.205 5.4973 216.778 5.57512 217.33 5.73075C217.882 5.87223 218.377 6.08445 218.815 6.36742C219.268 6.65038 219.494 7.02531 219.494 7.49219C219.494 7.77516 219.417 8.01568 219.261 8.21375C219.105 8.39768 218.914 8.48964 218.688 8.48964C218.532 8.48964 218.377 8.46134 218.221 8.40475C218.08 8.33401 217.896 8.23497 217.669 8.10764C217.259 7.89542 216.905 7.73979 216.608 7.64075C216.311 7.52756 215.943 7.47097 215.505 7.47097C214.981 7.47097 214.564 7.57708 214.253 7.78931C213.955 8.00153 213.807 8.29156 213.807 8.65942C213.807 9.01312 213.963 9.28193 214.274 9.46586C214.585 9.64979 215.186 9.83371 216.078 10.0176C217.026 10.2157 217.768 10.4421 218.306 10.6967C218.844 10.9514 219.226 11.2697 219.452 11.6517C219.693 12.0337 219.813 12.5219 219.813 13.1161C219.813 14.0782 219.41 14.8492 218.603 15.4293C217.811 16.0094 216.75 16.2994 215.42 16.2994ZM222.855 16.257C222.473 16.257 222.155 16.1509 221.9 15.9386C221.66 15.7123 221.539 15.3939 221.539 14.9836V6.79186C221.539 6.38156 221.66 6.07031 221.9 5.85808C222.155 5.64586 222.473 5.53975 222.855 5.53975C223.237 5.53975 223.555 5.64586 223.81 5.85808C224.065 6.07031 224.192 6.38156 224.192 6.79186V14.9836C224.192 15.3939 224.065 15.7123 223.81 15.9386C223.555 16.1509 223.237 16.257 222.855 16.257ZM222.855 3.65097C222.374 3.65097 221.992 3.52364 221.709 3.26897C221.426 3.00016 221.285 2.65353 221.285 2.22908C221.285 1.80464 221.426 1.46508 221.709 1.21042C221.992 0.95575 222.374 0.828417 222.855 0.828417C223.322 0.828417 223.697 0.95575 223.98 1.21042C224.277 1.46508 224.425 1.80464 224.425 2.22908C224.425 2.65353 224.284 3.00016 224.001 3.26897C223.718 3.52364 223.336 3.65097 222.855 3.65097ZM238.833 5.4973C239.965 5.4973 240.828 5.83686 241.422 6.51597C242.031 7.18094 242.335 8.26327 242.335 9.76297V14.9836C242.335 15.3939 242.208 15.7123 241.953 15.9386C241.713 16.1509 241.394 16.257 240.998 16.257C240.616 16.257 240.298 16.1509 240.043 15.9386C239.803 15.7123 239.682 15.3939 239.682 14.9836V9.76297C239.682 8.98482 239.541 8.43305 239.258 8.10764C238.989 7.76808 238.572 7.59831 238.006 7.59831C237.312 7.59831 236.761 7.83882 236.35 8.31986C235.94 8.78675 235.735 9.43049 235.735 10.2511V14.9836C235.735 15.3939 235.608 15.7123 235.353 15.9386C235.112 16.1509 234.801 16.257 234.419 16.257C234.037 16.257 233.719 16.1509 233.464 15.9386C233.209 15.7123 233.082 15.3939 233.082 14.9836V9.76297C233.082 8.98482 232.941 8.43305 232.658 8.10764C232.389 7.76808 231.972 7.59831 231.406 7.59831C230.712 7.59831 230.161 7.83882 229.75 8.31986C229.354 8.78675 229.156 9.43049 229.156 10.2511V14.9836C229.156 15.3939 229.029 15.7123 228.774 15.9386C228.519 16.1509 228.201 16.257 227.819 16.257C227.437 16.257 227.119 16.1509 226.864 15.9386C226.624 15.7123 226.503 15.3939 226.503 14.9836V6.77064C226.503 6.37449 226.631 6.07031 226.885 5.85808C227.14 5.64586 227.458 5.53975 227.84 5.53975C228.208 5.53975 228.505 5.64586 228.732 5.85808C228.972 6.05616 229.092 6.34619 229.092 6.72819V7.23753C229.418 6.6716 229.849 6.24008 230.387 5.94297C230.939 5.64586 231.568 5.4973 232.276 5.4973C233.832 5.4973 234.872 6.14812 235.395 7.44975C235.707 6.85553 236.166 6.38156 236.775 6.02786C237.383 5.67416 238.069 5.4973 238.833 5.4973ZM250.57 5.4973C251.462 5.4973 252.254 5.72368 252.947 6.17642C253.655 6.62916 254.199 7.2729 254.581 8.10764C254.977 8.92823 255.175 9.87616 255.175 10.9514C255.175 12.0267 254.977 12.9675 254.581 13.774C254.199 14.5804 253.662 15.2029 252.968 15.6415C252.275 16.0801 251.476 16.2994 250.57 16.2994C249.835 16.2994 249.177 16.1438 248.597 15.8325C248.017 15.5213 247.571 15.0897 247.26 14.538V18.8673C247.26 19.2352 247.139 19.5252 246.899 19.7374C246.658 19.9496 246.34 20.0557 245.944 20.0557C245.548 20.0557 245.222 19.9426 244.968 19.7162C244.727 19.4898 244.607 19.1927 244.607 18.8249V6.79186C244.607 6.40986 244.72 6.10568 244.946 5.87931C245.187 5.65294 245.505 5.53975 245.901 5.53975C246.298 5.53975 246.616 5.65294 246.856 5.87931C247.097 6.10568 247.217 6.40986 247.217 6.79186V7.32242C247.528 6.74234 247.974 6.29668 248.554 5.98542C249.148 5.66001 249.82 5.4973 250.57 5.4973ZM249.87 14.2409C250.705 14.2409 251.355 13.9579 251.822 13.392C252.289 12.8119 252.523 11.9984 252.523 10.9514C252.523 9.87616 252.289 9.04142 251.822 8.44719C251.355 7.85297 250.705 7.55586 249.87 7.55586C249.021 7.55586 248.363 7.8459 247.896 8.42597C247.444 9.00605 247.217 9.83371 247.217 10.909C247.217 11.9701 247.444 12.7907 247.896 13.3707C248.363 13.9508 249.021 14.2409 249.87 14.2409ZM258.244 16.257C257.862 16.257 257.544 16.1509 257.289 15.9386C257.048 15.7123 256.928 15.3939 256.928 14.9836V2.31397C256.928 1.90368 257.048 1.59242 257.289 1.38019C257.544 1.16797 257.862 1.06186 258.244 1.06186C258.626 1.06186 258.944 1.16797 259.199 1.38019C259.454 1.59242 259.581 1.90368 259.581 2.31397V14.9836C259.581 15.3939 259.454 15.7123 259.199 15.9386C258.944 16.1509 258.626 16.257 258.244 16.257ZM270.105 13.2859C270.346 13.2859 270.537 13.3778 270.678 13.5617C270.834 13.7457 270.912 13.9933 270.912 14.3045C270.912 14.7431 270.65 15.111 270.126 15.4081C269.645 15.6769 269.101 15.8962 268.492 16.066C267.884 16.2216 267.304 16.2994 266.752 16.2994C265.083 16.2994 263.76 15.8184 262.784 14.8563C261.807 13.8942 261.319 12.5785 261.319 10.909C261.319 9.84786 261.531 8.90701 261.956 8.08642C262.38 7.26582 262.975 6.62916 263.739 6.17642C264.517 5.72368 265.394 5.4973 266.37 5.4973C267.304 5.4973 268.117 5.70245 268.811 6.11275C269.504 6.52305 270.042 7.10312 270.424 7.85297C270.806 8.60282 270.997 9.48708 270.997 10.5057C270.997 11.1141 270.728 11.4183 270.19 11.4183H263.93C264.014 12.3945 264.29 13.1161 264.757 13.583C265.224 14.0357 265.903 14.2621 266.795 14.2621C267.247 14.2621 267.643 14.2055 267.983 14.0923C268.337 13.9791 268.733 13.8235 269.171 13.6254C269.596 13.399 269.907 13.2859 270.105 13.2859ZM266.434 7.36486C265.712 7.36486 265.132 7.59123 264.694 8.04397C264.269 8.49671 264.014 9.14753 263.93 9.99642H268.726C268.697 9.13338 268.485 8.48256 268.089 8.04397C267.693 7.59123 267.141 7.36486 266.434 7.36486ZM282.224 5.53975C284.813 5.53975 286.108 6.89797 286.108 9.61442V15.3869C286.108 15.6415 286.03 15.8467 285.875 16.0023C285.733 16.1579 285.535 16.2357 285.28 16.2357C285.026 16.2357 284.821 16.1579 284.665 16.0023C284.509 15.8467 284.431 15.6415 284.431 15.3869V14.3682C284.163 14.9766 283.752 15.4505 283.201 15.7901C282.649 16.1155 282.012 16.2782 281.291 16.2782C280.626 16.2782 280.01 16.1438 279.444 15.875C278.892 15.6062 278.454 15.2312 278.128 14.7502C277.803 14.2692 277.64 13.7386 277.64 13.1585C277.64 12.3804 277.838 11.7791 278.235 11.3546C278.631 10.916 279.282 10.6048 280.187 10.4209C281.093 10.2228 282.352 10.1237 283.965 10.1237H284.431V9.42342C284.431 8.57453 284.255 7.95201 283.901 7.55586C283.561 7.15971 283.003 6.96164 282.224 6.96164C281.262 6.96164 280.286 7.22338 279.296 7.74686C278.914 7.98738 278.645 8.10764 278.489 8.10764C278.319 8.10764 278.178 8.04397 278.065 7.91664C277.952 7.78931 277.895 7.6266 277.895 7.42853C277.895 7.23045 277.952 7.06068 278.065 6.91919C278.192 6.76356 278.39 6.60793 278.659 6.45231C279.154 6.16934 279.713 5.95005 280.336 5.79442C280.972 5.62464 281.602 5.53975 282.224 5.53975ZM281.524 14.92C282.373 14.92 283.066 14.637 283.604 14.0711C284.156 13.491 284.431 12.7482 284.431 11.8427V11.2273H284.049C282.804 11.2273 281.857 11.2839 281.206 11.3971C280.555 11.4961 280.088 11.673 279.805 11.9276C279.536 12.1682 279.402 12.5289 279.402 13.01C279.402 13.5617 279.6 14.0216 279.996 14.3894C280.406 14.7431 280.916 14.92 281.524 14.92ZM294.03 5.53975C296.506 5.53975 297.744 6.90505 297.744 9.63564V15.3869C297.744 15.6557 297.666 15.8679 297.51 16.0235C297.369 16.165 297.164 16.2357 296.895 16.2357C296.626 16.2357 296.414 16.165 296.258 16.0235C296.102 15.8679 296.025 15.6557 296.025 15.3869V9.74175C296.025 8.77968 295.834 8.07934 295.452 7.64075C295.084 7.20216 294.49 6.98286 293.669 6.98286C292.721 6.98286 291.964 7.2729 291.398 7.85297C290.832 8.43305 290.549 9.21827 290.549 10.2086V15.3869C290.549 15.6557 290.471 15.8679 290.316 16.0235C290.174 16.165 289.969 16.2357 289.7 16.2357C289.432 16.2357 289.219 16.165 289.064 16.0235C288.908 15.8679 288.83 15.6557 288.83 15.3869V6.43108C288.83 6.17642 288.908 5.97127 289.064 5.81564C289.219 5.66001 289.432 5.58219 289.7 5.58219C289.955 5.58219 290.153 5.66001 290.295 5.81564C290.45 5.97127 290.528 6.16934 290.528 6.40986V7.49219C290.868 6.85553 291.342 6.37449 291.95 6.04908C292.558 5.70953 293.252 5.53975 294.03 5.53975ZM308.766 1.06186C309.034 1.06186 309.247 1.13968 309.402 1.2953C309.558 1.45093 309.636 1.64901 309.636 1.88953V15.3869C309.636 15.6415 309.558 15.8467 309.402 16.0023C309.247 16.1579 309.034 16.2357 308.766 16.2357C308.497 16.2357 308.285 16.1579 308.129 16.0023C307.987 15.8467 307.917 15.6415 307.917 15.3869V14.2409C307.605 14.8917 307.146 15.3939 306.537 15.7476C305.943 16.1013 305.243 16.2782 304.436 16.2782C303.531 16.2782 302.731 16.0518 302.038 15.5991C301.345 15.1463 300.807 14.5167 300.425 13.7103C300.043 12.8897 299.852 11.9418 299.852 10.8665C299.852 9.80542 300.043 8.87164 300.425 8.06519C300.807 7.25875 301.345 6.63623 302.038 6.19764C302.731 5.75905 303.531 5.53975 304.436 5.53975C305.243 5.53975 305.943 5.7166 306.537 6.0703C307.146 6.42401 307.605 6.92627 307.917 7.57708V1.88953C307.917 1.63486 307.987 1.43679 308.129 1.2953C308.285 1.13968 308.497 1.06186 308.766 1.06186ZM304.776 14.8563C305.78 14.8563 306.551 14.5167 307.089 13.8376C307.641 13.1444 307.917 12.1682 307.917 10.909C307.917 9.64979 307.641 8.68064 307.089 8.00153C306.551 7.32242 305.78 6.98286 304.776 6.98286C303.771 6.98286 302.986 7.32242 302.42 8.00153C301.868 8.68064 301.592 9.63564 301.592 10.8665C301.592 12.1257 301.868 13.109 302.42 13.8164C302.986 14.5097 303.771 14.8563 304.776 14.8563ZM325.443 13.2859C325.683 13.2859 325.874 13.3778 326.016 13.5617C326.172 13.7457 326.249 13.9933 326.249 14.3045C326.249 14.7431 325.988 15.111 325.464 15.4081C324.983 15.6769 324.438 15.8962 323.83 16.066C323.222 16.2216 322.642 16.2994 322.09 16.2994C320.42 16.2994 319.097 15.8184 318.121 14.8563C317.145 13.8942 316.657 12.5785 316.657 10.909C316.657 9.84786 316.869 8.90701 317.294 8.08642C317.718 7.26582 318.312 6.62916 319.076 6.17642C319.854 5.72368 320.732 5.4973 321.708 5.4973C322.642 5.4973 323.455 5.70245 324.148 6.11275C324.842 6.52305 325.379 7.10312 325.761 7.85297C326.143 8.60282 326.334 9.48708 326.334 10.5057C326.334 11.1141 326.065 11.4183 325.528 11.4183H319.267C319.352 12.3945 319.628 13.1161 320.095 13.583C320.562 14.0357 321.241 14.2621 322.132 14.2621C322.585 14.2621 322.981 14.2055 323.321 14.0923C323.674 13.9791 324.071 13.8235 324.509 13.6254C324.934 13.399 325.245 13.2859 325.443 13.2859ZM321.771 7.36486C321.05 7.36486 320.47 7.59123 320.031 8.04397C319.607 8.49671 319.352 9.14753 319.267 9.99642H324.063C324.035 9.13338 323.823 8.48256 323.427 8.04397C323.031 7.59123 322.479 7.36486 321.771 7.36486ZM332.579 5.4973C334.022 5.4973 335.09 5.85808 335.783 6.57964C336.491 7.28705 336.845 8.36938 336.845 9.82664V15.0049C336.845 15.3869 336.731 15.691 336.505 15.9174C336.279 16.1296 335.967 16.2357 335.571 16.2357C335.203 16.2357 334.899 16.1226 334.659 15.8962C334.432 15.6698 334.319 15.3727 334.319 15.0049V14.538C334.079 15.0897 333.697 15.5213 333.173 15.8325C332.664 16.1438 332.07 16.2994 331.39 16.2994C330.697 16.2994 330.068 16.1579 329.502 15.875C328.936 15.592 328.49 15.2029 328.165 14.7077C327.839 14.2126 327.677 13.6608 327.677 13.0524C327.677 12.2884 327.868 11.6871 328.25 11.2485C328.646 10.8099 329.282 10.4916 330.16 10.2935C331.037 10.0955 332.246 9.99642 333.789 9.99642H334.319V9.50831C334.319 8.81505 334.171 8.31279 333.873 8.00153C333.576 7.67612 333.095 7.51342 332.43 7.51342C332.02 7.51342 331.603 7.57708 331.178 7.70442C330.754 7.8176 330.252 7.98738 329.671 8.21375C329.304 8.39768 329.035 8.48964 328.865 8.48964C328.61 8.48964 328.398 8.39768 328.228 8.21375C328.073 8.02982 327.995 7.78931 327.995 7.49219C327.995 7.25168 328.051 7.04653 328.165 6.87675C328.292 6.69282 328.497 6.52305 328.78 6.36742C329.275 6.0986 329.862 5.88638 330.542 5.73075C331.235 5.57512 331.914 5.4973 332.579 5.4973ZM331.921 14.3894C332.628 14.3894 333.201 14.156 333.64 13.6891C334.093 13.208 334.319 12.5926 334.319 11.8427V11.3971H333.937C332.989 11.3971 332.253 11.4395 331.73 11.5244C331.207 11.6093 330.832 11.7579 330.605 11.9701C330.379 12.1823 330.266 12.4723 330.266 12.8402C330.266 13.2929 330.421 13.6679 330.733 13.965C331.058 14.2479 331.454 14.3894 331.921 14.3894ZM342.873 16.2994C341.33 16.2994 340.085 15.9952 339.137 15.3869C338.685 15.118 338.458 14.736 338.458 14.2409C338.458 13.9579 338.536 13.7315 338.692 13.5617C338.847 13.3778 339.038 13.2859 339.265 13.2859C339.505 13.2859 339.838 13.399 340.262 13.6254C340.715 13.8376 341.125 14.0003 341.493 14.1135C341.875 14.2267 342.356 14.2833 342.936 14.2833C343.53 14.2833 343.99 14.1843 344.316 13.9862C344.655 13.7881 344.825 13.5122 344.825 13.1585C344.825 12.918 344.754 12.727 344.613 12.5855C344.485 12.444 344.245 12.3167 343.891 12.2035C343.552 12.0762 343.028 11.9347 342.321 11.7791C341.062 11.5244 340.156 11.1636 339.604 10.6967C339.067 10.2299 338.798 9.58612 338.798 8.76553C338.798 8.14301 338.982 7.58416 339.35 7.08897C339.717 6.57964 340.22 6.19056 340.856 5.92175C341.507 5.63879 342.243 5.4973 343.064 5.4973C343.658 5.4973 344.231 5.57512 344.783 5.73075C345.334 5.87223 345.829 6.08445 346.268 6.36742C346.721 6.65038 346.947 7.02531 346.947 7.49219C346.947 7.77516 346.869 8.01568 346.714 8.21375C346.558 8.39768 346.367 8.48964 346.141 8.48964C345.985 8.48964 345.829 8.46134 345.674 8.40475C345.532 8.33401 345.348 8.23497 345.122 8.10764C344.712 7.89542 344.358 7.73979 344.061 7.64075C343.764 7.52756 343.396 7.47097 342.957 7.47097C342.434 7.47097 342.017 7.57708 341.705 7.78931C341.408 8.00153 341.26 8.29156 341.26 8.65942C341.26 9.01312 341.415 9.28193 341.727 9.46586C342.038 9.64979 342.639 9.83371 343.53 10.0176C344.478 10.2157 345.221 10.4421 345.759 10.6967C346.296 10.9514 346.678 11.2697 346.905 11.6517C347.145 12.0337 347.266 12.5219 347.266 13.1161C347.266 14.0782 346.862 14.8492 346.056 15.4293C345.264 16.0094 344.202 16.2994 342.873 16.2994ZM356.084 6.30375C356.197 6.04908 356.345 5.86516 356.529 5.75197C356.727 5.62464 356.94 5.56097 357.166 5.56097C357.491 5.56097 357.781 5.67416 358.036 5.90053C358.305 6.11275 358.439 6.38156 358.439 6.70697C358.439 6.8626 358.397 7.02531 358.312 7.19508L352.518 19.3342C352.278 19.8152 351.903 20.0557 351.394 20.0557C351.068 20.0557 350.778 19.9496 350.523 19.7374C350.283 19.5393 350.163 19.2847 350.163 18.9734C350.163 18.8178 350.205 18.6409 350.29 18.4429L351.733 15.4081L347.786 7.19508C347.715 7.0536 347.68 6.8909 347.68 6.70697C347.68 6.38156 347.814 6.10568 348.083 5.87931C348.366 5.65294 348.684 5.53975 349.038 5.53975C349.278 5.53975 349.498 5.60342 349.696 5.73075C349.894 5.84393 350.049 6.02786 350.163 6.28253L353.134 12.8402L356.084 6.30375ZM360.654 16.2357C360.315 16.2357 360.032 16.1296 359.805 15.9174C359.579 15.691 359.466 15.401 359.466 15.0473C359.466 14.6936 359.579 14.4036 359.805 14.1772C360.032 13.9508 360.315 13.8376 360.654 13.8376C360.98 13.8376 361.248 13.9508 361.461 14.1772C361.687 14.4036 361.8 14.6936 361.8 15.0473C361.8 15.401 361.687 15.691 361.461 15.9174C361.248 16.1296 360.98 16.2357 360.654 16.2357Z" fill="#434B47"/>
</svg>
