<svg width="24" height="24" viewBox="0 0 24 24" fill="none" xmlns="http://www.w3.org/2000/svg">
<path d="M6 8.8479C7.21826 6.56524 9.71842 5 12.6048 5C16.6891 5 20 8.13401 20 12C20 15.866 16.6891 19 12.6048 19C9.71842 19 7.21826 17.4348 6 15.1521" stroke="#25D06A" stroke-width="2" stroke-linecap="round"/>
<path d="M3.54793 11.7177C3.55023 11.8783 3.62953 12.028 3.7611 12.1201C3.89266 12.2122 4.06048 12.2356 4.21217 12.1828L7.70642 10.9672C7.88373 10.9055 8.01154 10.7497 8.03737 10.5637C8.06321 10.3778 7.9827 10.193 7.82892 10.0853L4.28189 7.60168C4.1281 7.494 3.92696 7.48154 3.76106 7.56941C3.59517 7.65728 3.49247 7.83068 3.49515 8.01839L3.54793 11.7177Z" fill="#25D06A" stroke="#25D06A" stroke-linejoin="round"/>
</svg>
