<svg width="27" height="31" viewBox="0 0 27 31" fill="none" xmlns="http://www.w3.org/2000/svg">
<path d="M13.9437 0.769458C13.8576 0.603891 13.6866 0.5 13.5 0.5C13.3134 0.5 13.1424 0.603891 13.0563 0.769458L1.36498 23.2695C1.28444 23.4245 1.29063 23.6102 1.3813 23.7595C1.47197 23.9088 1.63398 24 1.80866 24H25.1913C25.366 24 25.528 23.9088 25.6187 23.7595C25.7094 23.6102 25.7156 23.4245 25.635 23.2695L13.9437 0.769458Z" fill="#FFDE32" stroke="#FFDE32" stroke-linecap="round" stroke-linejoin="round"/>
<path d="M13.4996 17.328C13.3196 17.328 13.1636 17.268 13.0316 17.148C12.9116 17.028 12.8396 16.854 12.8156 16.626L12.1496 9.624L12.1316 9.444C12.1316 9.072 12.2576 8.778 12.5096 8.562C12.7736 8.334 13.1036 8.22 13.4996 8.22C13.9196 8.22 14.2616 8.352 14.5256 8.616C14.7896 8.868 14.8976 9.21 14.8496 9.642L14.1836 16.626C14.1596 16.854 14.0816 17.028 13.9496 17.148C13.8296 17.268 13.6796 17.328 13.4996 17.328ZM13.4996 21.108C13.1156 21.108 12.7976 20.982 12.5456 20.73C12.2936 20.466 12.1676 20.142 12.1676 19.758C12.1676 19.374 12.2936 19.056 12.5456 18.804C12.7976 18.54 13.1156 18.408 13.4996 18.408C13.8836 18.408 14.2016 18.54 14.4536 18.804C14.7056 19.056 14.8316 19.374 14.8316 19.758C14.8316 20.142 14.7056 20.466 14.4536 20.73C14.2016 20.982 13.8836 21.108 13.4996 21.108Z" fill="white"/>
</svg>
